# xmcd CD database file
#
# Track frame offsets:
#	150
#	10109
#	25157
#	39327
#	52643
#	65101
#	80951
#	98888
#	111182
#	125941
#	137333
#	151482
#
# Disc length: 2205 seconds
#
# Revision: 1
# Processed by: cddbd v1.5.2PL0 Copyright (c) Steve Scherf et al.
# Submitted via: CDex 1.51
#
DISCID=9b089b0c
DTITLE=Glenn Miller - Glenn Miller Sound [CD2]
DYEAR=2005
DGENRE=Jazz
TTITLE0=Serenade in Blue
TTITLE1=Perfidia
TTITLE2=Stardust
TTITLE3=April in Paris
TTITLE4=Georgia on My Mind
TTITLE5=St. Louis Blues March
TTITLE6=A Sentimental Mood
TTITLE7=Moonlight Serenade
TTITLE8=India Summer
TTITLE9=Sun Valley Jump
TTITLE10=Farewell Blues
TTITLE11=At Last
EXTD=YEAR: 2005
EXTT0=
EXTT1=
EXTT2=
EXTT3=
EXTT4=
EXTT5=
EXTT6=
EXTT7=
EXTT8=
EXTT9=
EXTT10=
EXTT11=
PLAYORDER=
